<?xml version="1.0" encoding="UTF-8"?>
<!DOCTYPE svg PUBLIC "-//W3C//DTD SVG 1.1//EN" "http://www.w3.org/Graphics/SVG/1.1/DTD/svg11.dtd">
<svg xmlns="http://www.w3.org/2000/svg" version="1.1" width="1040px" height="970px" style="shape-rendering:geometricPrecision; text-rendering:geometricPrecision; image-rendering:optimizeQuality; fill-rule:evenodd; clip-rule:evenodd" xmlns:xlink="http://www.w3.org/1999/xlink">
<g><path style="opacity:0.988" fill="#4b4b4b" d="M 270.5,27.5 C 312.642,23.9879 344.809,39.9879 367,75.5C 387.276,118.675 381.109,157.508 348.5,192C 318.42,217.293 284.753,223.293 247.5,210C 210.156,192.676 190.489,163.343 188.5,122C 192.56,70.118 219.893,38.618 270.5,27.5 Z"/></g>
<g><path style="opacity:0.993" fill="#4b4b4b" d="M 229.5,241.5 C 263.474,238.653 291.974,249.653 315,274.5C 339.5,305 364,335.5 388.5,366C 444.5,366.333 500.5,366.667 556.5,367C 575.801,373.072 586.468,386.239 588.5,406.5C 586.468,426.761 575.801,439.928 556.5,446C 491.833,446.667 427.167,446.667 362.5,446C 356.678,444.755 351.345,442.422 346.5,439C 342.333,434.833 338.167,430.667 334,426.5C 332.487,474.825 331.32,523.158 330.5,571.5C 387.26,576.825 443.927,582.992 500.5,590C 523.168,597.335 537.668,612.501 544,635.5C 565.157,714.461 586.157,793.461 607,872.5C 609.37,893.061 602.87,910.227 587.5,924C 568.17,937.353 547.836,939.019 526.5,929C 514.34,921.541 505.84,911.041 501,897.5C 481.394,830.57 461.56,763.736 441.5,697C 369.136,696.981 296.803,696.314 224.5,695C 181.464,684.297 155.964,657.131 148,613.5C 147.014,514.47 147.347,415.47 149,316.5C 159.991,274.338 186.824,249.338 229.5,241.5 Z"/></g>
<g><path style="opacity:0.974" fill="#4b4b4b" d="M 798.5,241.5 C 808.991,244.831 819.324,248.665 829.5,253C 831.18,253.347 832.18,254.347 832.5,256C 799.768,338.128 766.768,420.128 733.5,502C 644.169,502.9 554.835,503.4 465.5,503.5C 465.5,491.5 465.5,479.5 465.5,467.5C 546.503,467.833 627.503,467.5 708.5,466.5C 738.508,391.471 768.508,316.471 798.5,241.5 Z"/></g>
<g><path style="opacity:0.969" fill="#4b4b4b" d="M 32.5,390.5 C 40.966,388.657 47.466,391.323 52,398.5C 65.4871,475.935 79.4871,553.268 94,630.5C 110.41,679.909 143.577,712.076 193.5,727C 205.63,730.161 217.963,731.828 230.5,732C 287.167,732.333 343.833,732.667 400.5,733C 409.067,736.804 411.901,743.304 409,752.5C 407.108,756.058 404.275,758.558 400.5,760C 348.834,760.5 297.168,760.667 245.5,760.5C 245.667,816.168 245.5,871.834 245,927.5C 244.27,936.396 239.437,941.063 230.5,941.5C 223.9,941.619 219.4,938.619 217,932.5C 216.5,875.168 216.333,817.834 216.5,760.5C 141.077,750.904 90.9107,710.237 66,638.5C 51.5796,562.978 37.913,487.312 25,411.5C 22.4929,402.547 24.9929,395.547 32.5,390.5 Z"/></g>
<g><path style="opacity:0.998" fill="#4b4b4b" d="M 395.5,522.5 C 598.834,522.333 802.167,522.5 1005.5,523C 1011.9,525.234 1014.9,529.734 1014.5,536.5C 1014.93,543.242 1011.93,547.742 1005.5,550C 802.167,550.667 598.833,550.667 395.5,550C 386.17,544.718 384.004,537.218 389,527.5C 390.965,525.45 393.132,523.783 395.5,522.5 Z"/></g>
</svg>
