<?xml version="1.0" encoding="UTF-8"?>
<!DOCTYPE svg PUBLIC "-//W3C//DTD SVG 1.1//EN" "http://www.w3.org/Graphics/SVG/1.1/DTD/svg11.dtd">
<svg xmlns="http://www.w3.org/2000/svg" version="1.1" width="2771px" height="2691px" style="shape-rendering:geometricPrecision; text-rendering:geometricPrecision; image-rendering:optimizeQuality; fill-rule:evenodd; clip-rule:evenodd" xmlns:xlink="http://www.w3.org/1999/xlink">
<g><path style="opacity:0.989" fill="#4b4b4b" d="M 1565.5,-0.5 C 1575.17,-0.5 1584.83,-0.5 1594.5,-0.5C 1677.3,1.36452 1755.64,21.1979 1829.5,59C 1872.97,82.4567 1910.47,113.29 1942,151.5C 1996.23,223.139 2007.57,301.139 1976,385.5C 1957.98,425.688 1932.15,460.021 1898.5,488.5C 1908.08,499.916 1919.08,509.749 1931.5,518C 1948.59,527.209 1965.92,535.876 1983.5,544C 2001.94,561.265 2006.77,581.765 1998,605.5C 1990.24,621.245 1977.74,631.078 1960.5,635C 1865.04,637.811 1773.04,621.311 1684.5,585.5C 1583.74,603.66 1485.07,595.827 1388.5,562C 1328.78,540.409 1276.95,506.909 1233,461.5C 1200.96,426.762 1179.96,386.095 1170,339.5C 1158.22,261.182 1178.89,192.848 1232,134.5C 1285.47,79.1562 1349.64,41.3229 1424.5,21C 1470.79,8.1746 1517.79,1.00793 1565.5,-0.5 Z M 1558.5,81.5 C 1626.9,78.7706 1692.9,89.9373 1756.5,115C 1797.18,131.71 1833.02,155.543 1864,186.5C 1887.73,211.29 1903.06,240.623 1910,274.5C 1915.05,308.571 1909.05,340.571 1892,370.5C 1879.22,391.207 1863.72,409.707 1845.5,426C 1834.5,434.5 1823.5,443 1812.5,451.5C 1800.92,465.25 1798.42,480.583 1805,497.5C 1814.23,514.136 1825.07,529.636 1837.5,544C 1791.22,536.26 1746.55,522.927 1703.5,504C 1698.88,502.935 1694.21,502.101 1689.5,501.5C 1606.85,519.435 1524.85,516.935 1443.5,494C 1386.46,477.583 1336.96,448.75 1295,407.5C 1232.46,335.344 1231.8,262.677 1293,189.5C 1334.2,147.968 1383.03,118.802 1439.5,102C 1478.49,90.3913 1518.16,83.5579 1558.5,81.5 Z"/></g>
<g><path style="opacity:0.988" fill="#4b4b4b" d="M 1132.5,100.5 C 1134.6,100.201 1136.6,100.534 1138.5,101.5C 1117.66,129.165 1101.5,159.499 1090,192.5C 1040.95,206.441 996.45,228.941 956.5,260C 931.595,280.672 912.095,305.506 898,334.5C 878.899,381.161 882.233,426.161 908,469.5C 926.833,499 951,523.167 980.5,542C 995.706,555.691 999.872,572.191 993,591.5C 984.02,608.635 973.187,624.468 960.5,639C 1005.69,631.273 1049.35,618.273 1091.5,600C 1096.66,598.084 1102,596.917 1107.5,596.5C 1143.79,603.929 1180.46,607.929 1217.5,608.5C 1233.43,608.179 1249.27,607.179 1265,605.5C 1305.07,629.612 1347.57,648.446 1392.5,662C 1346.51,677.667 1299.18,686.667 1250.5,689C 1204.32,691.547 1158.49,688.714 1113,680.5C 1024.61,716.148 932.776,732.648 837.5,730C 807.241,721.725 793.408,701.892 796,670.5C 798.396,656.528 805.229,645.361 816.5,637C 825.216,632.425 834.216,628.425 843.5,625C 865.007,615.243 883.673,601.577 899.5,584C 857.468,548.782 828.302,504.948 812,452.5C 792.616,369.033 811.283,295.366 868,231.5C 913.011,183.858 966.511,149.025 1028.5,127C 1062.5,115.001 1097.16,106.168 1132.5,100.5 Z"/></g>
<g><path style="opacity:0.995" fill="#4b4b4b" d="M 472.5,541.5 C 558.368,540.325 620.201,577.992 658,654.5C 681.248,712.567 678.248,769.234 649,824.5C 602.383,897.516 535.883,928.016 449.5,916C 376.727,899.56 328.227,856.06 304,785.5C 284.038,707.142 303.538,640.642 362.5,586C 394.572,559.797 431.239,544.963 472.5,541.5 Z"/></g>
<g><path style="opacity:0.995" fill="#4b4b4b" d="M 2272.5,541.5 C 2351.2,539.918 2410.7,572.585 2451,639.5C 2475.71,687.244 2480.37,736.911 2465,788.5C 2441.02,855.484 2394.52,897.651 2325.5,915C 2250.47,928.328 2187.97,906.495 2138,849.5C 2099.11,798.601 2087.45,741.934 2103,679.5C 2119.93,622.568 2155.43,581.735 2209.5,557C 2229.83,548.573 2250.83,543.406 2272.5,541.5 Z"/></g>
<g><path style="opacity:0.996" fill="#4b4b4b" d="M 465.5,968.5 C 494.119,967.657 521.452,973.157 547.5,985C 572.684,996.557 596.017,1010.89 617.5,1028C 690.791,1093.64 764.458,1158.8 838.5,1223.5C 917.5,1171 996.5,1118.5 1075.5,1066C 1109.66,1048.74 1142.32,1051.07 1173.5,1073C 1203.47,1100.05 1212.3,1132.88 1200,1171.5C 1195.77,1182.31 1189.77,1191.98 1182,1200.5C 1084.5,1286.67 987,1372.83 889.5,1459C 859.844,1479.14 827.844,1483.81 793.5,1473C 781.389,1468.45 770.389,1462.12 760.5,1454C 726.761,1423.72 692.927,1393.55 659,1363.5C 658.5,1465.5 658.333,1567.5 658.5,1669.5C 808.834,1669.33 959.167,1669.5 1109.5,1670C 1153.58,1675.44 1186.08,1697.6 1207,1736.5C 1213.49,1750.48 1217.49,1765.15 1219,1780.5C 1244,2035.17 1269,2289.83 1294,2544.5C 1297.19,2592.26 1277.35,2626.42 1234.5,2647C 1185.51,2662.72 1146.01,2649.89 1116,2608.5C 1110.35,2599.19 1106.35,2589.19 1104,2578.5C 1064.84,2359.88 1026.01,2141.21 987.5,1922.5C 816.478,1922.99 645.478,1922.49 474.5,1921C 420.957,1911.15 375.79,1886.32 339,1846.5C 314.556,1819.2 300.556,1787.2 297,1750.5C 296.333,1547.17 296.333,1343.83 297,1140.5C 303.523,1065.91 340.69,1013.07 408.5,982C 426.999,974.79 445.999,970.29 465.5,968.5 Z"/></g>
<g><path style="opacity:0.996" fill="#4b4b4b" d="M 2281.5,968.5 C 2351.82,967.407 2406.65,995.74 2446,1053.5C 2462.87,1081.11 2471.87,1111.11 2473,1143.5C 2473.67,1344.83 2473.67,1546.17 2473,1747.5C 2471.86,1772.58 2464.86,1795.91 2452,1817.5C 2414.71,1874.09 2362.54,1908.59 2295.5,1921C 2124.52,1922.49 1953.52,1922.99 1782.5,1922.5C 1743.78,2141.17 1704.94,2359.84 1666,2578.5C 1654.41,2620.43 1627.24,2645.26 1584.5,2653C 1536.57,2656.46 1502.4,2636.63 1482,2593.5C 1475.92,2577.35 1473.92,2560.68 1476,2543.5C 1501,2288.83 1526,2034.17 1551,1779.5C 1559.69,1719.81 1593.53,1683.64 1652.5,1671C 1805.48,1669.51 1958.48,1669.01 2111.5,1669.5C 2111.67,1567.5 2111.5,1465.5 2111,1363.5C 2077.59,1393.45 2044.09,1423.28 2010.5,1453C 1976.87,1479.99 1939.87,1485.66 1899.5,1470C 1888.75,1465.24 1879.09,1458.91 1870.5,1451C 1776,1367.17 1681.5,1283.33 1587,1199.5C 1563.29,1170.89 1558.29,1139.22 1572,1104.5C 1594.62,1063.16 1629.12,1047.66 1675.5,1058C 1682.08,1060.08 1688.41,1062.75 1694.5,1066C 1773.5,1118.5 1852.5,1171 1931.5,1223.5C 2008.35,1155.48 2085.35,1087.65 2162.5,1020C 2190.2,999.65 2220.53,984.317 2253.5,974C 2262.87,971.644 2272.21,969.811 2281.5,968.5 Z"/></g>
<g><path style="opacity:0.996" fill="#4b4b4b" d="M 732.5,2690.5 C 627.167,2690.5 521.833,2690.5 416.5,2690.5C 401.157,2688.33 390.657,2680 385,2665.5C 383.416,2650.21 383.082,2634.88 384,2619.5C 387.277,2604.89 396.11,2595.39 410.5,2591C 442.832,2590.5 475.165,2590.33 507.5,2590.5C 507.5,2445.5 507.5,2300.5 507.5,2155.5C 388.833,2155.67 270.166,2155.5 151.5,2155C 140.654,2152.16 132.82,2145.66 128,2135.5C 125.268,2129.12 123.601,2122.45 123,2115.5C 82.1406,1840.98 40.9739,1566.64 -0.5,1292.5C -0.5,1286.5 -0.5,1280.5 -0.5,1274.5C 3.05806,1263.1 10.3914,1254.93 21.5,1250C 55.425,1244.53 89.425,1239.53 123.5,1235C 142.568,1232.28 156.402,1239.45 165,1256.5C 202.258,1499.71 238.758,1743.05 274.5,1986.5C 484.167,1986.33 693.834,1986.5 903.5,1987C 918.229,1990.06 927.396,1998.9 931,2013.5C 931.667,2052.17 931.667,2090.83 931,2129.5C 926.98,2143.52 917.813,2152.02 903.5,2155C 816.167,2155.5 728.834,2155.67 641.5,2155.5C 641.5,2300.5 641.5,2445.5 641.5,2590.5C 673.835,2590.33 706.168,2590.5 738.5,2591C 753.104,2594.6 761.937,2603.77 765,2618.5C 765.667,2633.17 765.667,2647.83 765,2662.5C 760.351,2679.21 749.518,2688.55 732.5,2690.5 Z"/></g>
<g><path style="opacity:0.995" fill="#4b4b4b" d="M 2770.5,1274.5 C 2770.5,1280.17 2770.5,1285.83 2770.5,1291.5C 2728.69,1567.98 2687.19,1844.64 2646,2121.5C 2644.28,2131.77 2639.78,2140.61 2632.5,2148C 2628.38,2151.39 2623.71,2153.73 2618.5,2155C 2499.83,2155.5 2381.17,2155.67 2262.5,2155.5C 2262.5,2300.5 2262.5,2445.5 2262.5,2590.5C 2294.84,2590.33 2327.17,2590.5 2359.5,2591C 2374.3,2595.47 2383.14,2605.3 2386,2620.5C 2386.93,2635.22 2386.6,2649.89 2385,2664.5C 2379.74,2679.6 2369.24,2688.27 2353.5,2690.5C 2248.17,2690.5 2142.83,2690.5 2037.5,2690.5C 2022.2,2688.92 2011.7,2680.92 2006,2666.5C 2004.39,2650.22 2004.06,2633.89 2005,2617.5C 2008.5,2603.33 2017.33,2594.5 2031.5,2591C 2063.83,2590.5 2096.16,2590.33 2128.5,2590.5C 2128.5,2445.5 2128.5,2300.5 2128.5,2155.5C 2041.17,2155.67 1953.83,2155.5 1866.5,2155C 1849.64,2151.14 1840.14,2140.64 1838,2123.5C 1837.33,2088.5 1837.33,2053.5 1838,2018.5C 1840.14,2001.36 1849.64,1990.86 1866.5,1987C 2076.17,1986.5 2285.83,1986.33 2495.5,1986.5C 2531.12,1743.02 2567.62,1499.69 2605,1256.5C 2613.32,1238.93 2627.15,1231.77 2646.5,1235C 2680.57,1239.53 2714.57,1244.53 2748.5,1250C 2759.6,1254.93 2766.93,1263.09 2770.5,1274.5 Z"/></g>
</svg>
