<?xml version="1.0" encoding="UTF-8"?>
<!DOCTYPE svg PUBLIC "-//W3C//DTD SVG 1.1//EN" "http://www.w3.org/Graphics/SVG/1.1/DTD/svg11.dtd">
<svg xmlns="http://www.w3.org/2000/svg" version="1.1" width="500px" height="500px" style="shape-rendering:geometricPrecision; text-rendering:geometricPrecision; image-rendering:optimizeQuality; fill-rule:evenodd; clip-rule:evenodd" xmlns:xlink="http://www.w3.org/1999/xlink">
<g><path style="opacity:0.903" fill="#4b4b4b" d="M 389.5,61.5 C 412.016,59.8298 426.183,69.8298 432,91.5C 434.168,113.997 424.335,128.164 402.5,134C 379.964,136.154 365.798,126.32 360,104.5C 357.963,81.8805 367.796,67.5472 389.5,61.5 Z M 391.5,70.5 C 412.641,70.8071 423.141,81.4738 423,102.5C 418.734,118.717 408.234,126.217 391.5,125C 375.297,120.773 367.797,110.273 369,93.5C 372.015,81.3193 379.515,73.6526 391.5,70.5 Z"/></g>
<g><path style="opacity:0.848" fill="#4b4b4b" d="M 394.5,77.5 C 397.044,77.1043 399.211,77.771 401,79.5C 401.667,86.8333 401.667,94.1667 401,101.5C 400.5,102 400,102.5 399.5,103C 393.5,103.667 387.5,103.667 381.5,103C 377.5,100.333 377.5,97.6667 381.5,95C 385.152,94.5014 388.818,94.3347 392.5,94.5C 391.988,88.6118 392.655,82.9452 394.5,77.5 Z"/></g>
<g><path style="opacity:0.969" fill="#4b4b4b" d="M 279.5,145.5 C 297.359,144.005 309.192,151.672 315,168.5C 317.352,187.308 309.519,199.475 291.5,205C 272.514,207.097 260.681,198.93 256,180.5C 254.891,162.692 262.725,151.025 279.5,145.5 Z"/></g>
<g><path style="opacity:0.924" fill="#4b4b4b" d="M 76.5,205.5 C 90.8372,205.333 105.171,205.5 119.5,206C 121.701,209.986 122.035,214.152 120.5,218.5C 105.515,219.499 90.5148,219.833 75.5,219.5C 76.4601,214.735 76.7935,210.068 76.5,205.5 Z"/></g>
<g><path style="opacity:0.974" fill="#4b4b4b" d="M 312.5,207.5 C 324.15,206.669 331.983,211.669 336,222.5C 342.628,257.974 349.128,293.474 355.5,329C 354.615,340.461 348.615,347.461 337.5,350C 315.836,350.5 294.169,350.667 272.5,350.5C 267.4,375.831 262.234,401.165 257,426.5C 252.968,434.037 246.802,436.537 238.5,434C 233.054,431.465 230.054,427.132 229.5,421C 232.97,389.436 236.803,357.936 241,326.5C 244.426,321.694 248.926,318.194 254.5,316C 269.843,313.118 285.177,310.285 300.5,307.5C 297.523,293.113 294.356,278.78 291,264.5C 282.526,268.102 273.692,270.269 264.5,271C 246.5,271.667 228.5,271.667 210.5,271C 201.331,267.849 198.498,261.683 202,252.5C 203.543,250.622 205.376,249.122 207.5,248C 225.842,246.38 244.175,244.714 262.5,243C 274.167,233.333 285.833,223.667 297.5,214C 302.142,210.74 307.142,208.573 312.5,207.5 Z"/></g>
<g><path style="opacity:0.985" fill="#4b4b4b" d="M 203.5,216.5 C 205.47,217.162 207.47,217.828 209.5,218.5C 209.833,219.167 210.167,219.833 210.5,220.5C 205.768,235.864 200.934,251.197 196,266.5C 194.414,269.341 192.58,272.007 190.5,274.5C 206.486,275.499 222.486,275.833 238.5,275.5C 238.5,282.5 238.5,289.5 238.5,296.5C 219.167,296.5 199.833,296.5 180.5,296.5C 180.5,343.167 180.5,389.833 180.5,436.5C 142.833,436.5 105.167,436.5 67.5,436.5C 67.5,382.833 67.5,329.167 67.5,275.5C 107.833,275.5 148.167,275.5 188.5,275.5C 187.101,270.445 187.268,265.445 189,260.5C 193.839,245.798 198.673,231.131 203.5,216.5 Z"/></g>
<g><path style="opacity:0.924" fill="#4b4b4b" d="M 69.5,221.5 C 84.5148,221.167 99.5148,221.501 114.5,222.5C 116.035,226.848 115.701,231.014 113.5,235C 99.1667,235.667 84.8333,235.667 70.5,235C 70.8114,230.598 70.4781,226.098 69.5,221.5 Z"/></g>
<g><path style="opacity:0.913" fill="#4b4b4b" d="M 72.5,237.5 C 97.8333,237.5 123.167,237.5 148.5,237.5C 148.5,242.833 148.5,248.167 148.5,253.5C 123.167,253.5 97.8333,253.5 72.5,253.5C 72.5,248.167 72.5,242.833 72.5,237.5 Z"/></g>
<g><path style="opacity:0.944" fill="#4b4b4b" d="M 390.5,252.5 C 398.135,251.315 402.468,254.482 403.5,262C 396.7,291.036 389.2,319.869 381,348.5C 371.181,367.995 355.348,376.328 333.5,373.5C 333.5,384.833 333.5,396.167 333.5,407.5C 340.841,407.334 348.174,407.5 355.5,408C 362.757,410.679 365.757,415.846 364.5,423.5C 361.5,423.5 358.5,423.5 355.5,423.5C 356.145,420.453 355.145,418.287 352.5,417C 344.841,416.5 337.174,416.334 329.5,416.5C 329.5,418.5 329.5,420.5 329.5,422.5C 326.833,422.5 324.167,422.5 321.5,422.5C 321.5,420.5 321.5,418.5 321.5,416.5C 313.826,416.334 306.159,416.5 298.5,417C 296.081,418.509 295.081,420.675 295.5,423.5C 292.5,423.5 289.5,423.5 286.5,423.5C 285.884,417.152 288.218,412.318 293.5,409C 301.749,407.594 310.083,407.094 318.5,407.5C 318.5,396.167 318.5,384.833 318.5,373.5C 305.163,373.667 291.829,373.5 278.5,373C 276.333,372.167 274.833,370.667 274,368.5C 271.724,361.708 273.89,357.208 280.5,355C 303.167,354.667 325.833,354.333 348.5,354C 355.909,351.592 361.076,346.758 364,339.5C 371.134,311.766 378.468,284.099 386,256.5C 387.397,254.93 388.897,253.596 390.5,252.5 Z"/></g>
<g><path style="opacity:0.981" fill="#4b4b4b" d="M 66.5,255.5 C 91.5,255.5 116.5,255.5 141.5,255.5C 141.5,260.833 141.5,266.167 141.5,271.5C 116.5,271.5 91.5,271.5 66.5,271.5C 66.5,266.167 66.5,260.833 66.5,255.5 Z"/></g>
<g><path style="opacity:0.852" fill="#4b4b4b" d="M 288.5,424.5 C 297.306,424.464 299.639,428.297 295.5,436C 287.95,438.984 284.45,436.484 285,428.5C 285.69,426.65 286.856,425.316 288.5,424.5 Z"/></g>
<g><path style="opacity:0.851" fill="#4b4b4b" d="M 322.5,424.5 C 331.523,424.062 334.189,427.895 330.5,436C 322.243,438.96 318.743,436.127 320,427.5C 321.045,426.627 321.878,425.627 322.5,424.5 Z"/></g>
<g><path style="opacity:0.851" fill="#4b4b4b" d="M 357.5,424.5 C 366.523,424.062 369.189,427.895 365.5,436C 357.243,438.96 353.743,436.127 355,427.5C 356.045,426.627 356.878,425.627 357.5,424.5 Z"/></g>
</svg>
