<?xml version="1.0" encoding="UTF-8"?>
<!DOCTYPE svg PUBLIC "-//W3C//DTD SVG 1.1//EN" "http://www.w3.org/Graphics/SVG/1.1/DTD/svg11.dtd">
<svg xmlns="http://www.w3.org/2000/svg" version="1.1" width="886px" height="334px" style="shape-rendering:geometricPrecision; text-rendering:geometricPrecision; image-rendering:optimizeQuality; fill-rule:evenodd; clip-rule:evenodd" xmlns:xlink="http://www.w3.org/1999/xlink">
<g><path style="opacity:0.938" fill="#000000" d="M 593.5,99.5 C 594.496,99.4142 595.329,99.7476 596,100.5C 609.804,137.578 623.804,174.578 638,211.5C 640.546,214.186 643.713,215.186 647.5,214.5C 647.5,217.167 647.5,219.833 647.5,222.5C 635.5,222.5 623.5,222.5 611.5,222.5C 611.5,219.833 611.5,217.167 611.5,214.5C 613.857,214.663 616.19,214.497 618.5,214C 619.097,212.938 619.43,211.772 619.5,210.5C 616.234,200.369 612.567,190.369 608.5,180.5C 592.833,179.167 577.167,179.167 561.5,180.5C 557.304,190.42 553.304,200.42 549.5,210.5C 549.968,212.134 550.968,213.3 552.5,214C 555.146,214.497 557.813,214.664 560.5,214.5C 560.5,217.167 560.5,219.833 560.5,222.5C 550.167,222.5 539.833,222.5 529.5,222.5C 529.5,219.833 529.5,217.167 529.5,214.5C 534.558,215.283 538.058,213.283 540,208.5C 553.735,173.794 567.569,139.127 581.5,104.5C 585.591,102.81 589.591,101.144 593.5,99.5 Z M 584.5,120.5 C 585.79,121.058 586.623,122.058 587,123.5C 593.464,139.421 599.631,155.421 605.5,171.5C 591.833,171.5 578.167,171.5 564.5,171.5C 570.883,154.399 577.55,137.399 584.5,120.5 Z"/></g>
<g><path style="opacity:0.926" fill="#000000" d="M 784.5,100.5 C 787.119,100.232 789.619,100.565 792,101.5C 792.333,137.833 792.667,174.167 793,210.5C 794.214,212.049 795.714,213.215 797.5,214C 802.155,214.499 806.821,214.666 811.5,214.5C 811.5,217.167 811.5,219.833 811.5,222.5C 793.5,222.5 775.5,222.5 757.5,222.5C 757.5,219.833 757.5,217.167 757.5,214.5C 761.846,214.666 766.179,214.499 770.5,214C 772.286,213.215 773.786,212.049 775,210.5C 776.135,195.385 776.635,180.218 776.5,165C 776.333,151.167 776.167,137.333 776,123.5C 775.626,122.584 775.126,121.75 774.5,121C 768.843,120.501 763.176,120.334 757.5,120.5C 757.5,117.5 757.5,114.5 757.5,111.5C 763.593,111.861 769.593,111.361 775.5,110C 780.079,108.256 783.079,105.09 784.5,100.5 Z"/></g>
<g><path style="opacity:0.92" fill="#000000" d="M 352.5,101.5 C 365.125,101.03 377.625,102.03 390,104.5C 393.638,104.888 396.805,103.888 399.5,101.5C 402.544,112.045 405.21,122.711 407.5,133.5C 405.05,135.867 402.05,136.867 398.5,136.5C 392.606,118.614 380.106,109.948 361,110.5C 339.167,111.993 326.5,123.659 323,145.5C 319.307,163.693 321.64,181.026 330,197.5C 344.206,215.709 361.706,219.542 382.5,209C 390.418,202.334 396.251,194.167 400,184.5C 402.583,185.874 405.083,187.374 407.5,189C 394.73,220.047 372.063,230.714 339.5,221C 314.169,209.858 301.835,190.358 302.5,162.5C 303.236,128.79 319.903,108.456 352.5,101.5 Z"/></g>
<g><path style="opacity:0.903" fill="#000000" d="M 62.5,102.5 C 69.8409,102.334 77.1742,102.5 84.5,103C 105.877,133.588 127.377,164.088 149,194.5C 149.667,167.5 149.667,140.5 149,113.5C 146.196,111.656 143.03,110.989 139.5,111.5C 139.5,108.5 139.5,105.5 139.5,102.5C 148.833,102.5 158.167,102.5 167.5,102.5C 167.5,105.5 167.5,108.5 167.5,111.5C 164.5,111.5 161.5,111.5 158.5,111.5C 158.5,148.5 158.5,185.5 158.5,222.5C 155.223,222.784 152.057,222.451 149,221.5C 127.056,189.224 104.723,157.224 82,125.5C 81.3333,154.833 81.3333,184.167 82,213.5C 84.7191,214.444 87.5525,214.777 90.5,214.5C 90.5,217.167 90.5,219.833 90.5,222.5C 81.1667,222.5 71.8333,222.5 62.5,222.5C 62.5,219.833 62.5,217.167 62.5,214.5C 65.4475,214.777 68.2809,214.444 71,213.5C 71.5,179.502 71.6667,145.502 71.5,111.5C 62.611,113.922 59.611,110.922 62.5,102.5 Z"/></g>
<g><path style="opacity:0.924" fill="#000000" d="M 181.5,102.5 C 193.5,102.5 205.5,102.5 217.5,102.5C 217.5,105.5 217.5,108.5 217.5,111.5C 214.223,111.216 211.057,111.549 208,112.5C 207.333,129.167 207.333,145.833 208,162.5C 223.696,147.138 239.029,131.471 254,115.5C 254.684,114.216 254.517,113.049 253.5,112C 250.854,111.503 248.187,111.336 245.5,111.5C 245.5,108.5 245.5,105.5 245.5,102.5C 257.081,102.179 268.581,102.512 280,103.5C 280.769,106.099 280.602,108.599 279.5,111C 276.086,111.297 272.753,111.964 269.5,113C 256.989,124.679 244.655,136.512 232.5,148.5C 248.896,170.786 265.896,192.619 283.5,214C 285.473,214.495 287.473,214.662 289.5,214.5C 289.5,217.167 289.5,219.833 289.5,222.5C 277.833,222.5 266.167,222.5 254.5,222.5C 254.5,219.833 254.5,217.167 254.5,214.5C 256.833,214.5 259.167,214.5 261.5,214.5C 261.657,213.127 261.49,211.793 261,210.5C 248.385,192.884 235.385,175.55 222,158.5C 216.966,163.199 212.3,168.199 208,173.5C 207.333,186.833 207.333,200.167 208,213.5C 211.057,214.451 214.223,214.784 217.5,214.5C 217.5,217.167 217.5,219.833 217.5,222.5C 205.5,222.5 193.5,222.5 181.5,222.5C 181.5,219.833 181.5,217.167 181.5,214.5C 184.777,214.784 187.943,214.451 191,213.5C 191.5,179.502 191.667,145.502 191.5,111.5C 188.167,111.5 184.833,111.5 181.5,111.5C 181.5,108.5 181.5,105.5 181.5,102.5 Z"/></g>
<g><path style="opacity:0.911" fill="#000000" d="M 428.5,102.5 C 458.835,102.333 489.168,102.5 519.5,103C 522.2,112.667 524.2,122.5 525.5,132.5C 522.932,133.45 520.432,133.45 518,132.5C 515.621,125.333 512.121,118.833 507.5,113C 498.916,111.59 490.25,111.09 481.5,111.5C 481.333,144.835 481.5,178.168 482,211.5C 482.374,212.416 482.874,213.25 483.5,214C 487.152,214.499 490.818,214.665 494.5,214.5C 494.5,217.167 494.5,219.833 494.5,222.5C 480.833,222.5 467.167,222.5 453.5,222.5C 453.5,219.833 453.5,217.167 453.5,214.5C 457.437,214.793 461.27,214.46 465,213.5C 465.5,179.502 465.667,145.502 465.5,111.5C 457.747,111.104 450.08,111.604 442.5,113C 440.919,113.707 439.419,114.54 438,115.5C 435.014,120.959 432.514,126.626 430.5,132.5C 427.874,133.449 425.208,133.449 422.5,132.5C 424.116,122.42 426.116,112.42 428.5,102.5 Z"/></g>
<g><path style="opacity:0.916" fill="#000000" d="M 666.5,102.5 C 686.5,102.5 706.5,102.5 726.5,102.5C 725.687,107.399 724.687,112.232 723.5,117C 707.503,117.5 691.503,117.667 675.5,117.5C 674.293,129.141 673.793,140.808 674,152.5C 677.397,148.051 681.897,145.551 687.5,145C 714.294,142.45 727.961,154.783 728.5,182C 727.063,214.795 710.397,228.129 678.5,222C 671.596,218.808 665.763,214.308 661,208.5C 657.332,202.825 656.665,196.825 659,190.5C 663.299,185.552 668.466,184.385 674.5,187C 679.552,192.366 679.719,197.866 675,203.5C 673.894,209.415 676.394,212.915 682.5,214C 695.32,218.005 704.153,213.838 709,201.5C 711.811,191.237 712.144,180.904 710,170.5C 705.594,155.389 696.094,151.222 681.5,158C 677.743,161.086 674.743,164.752 672.5,169C 669.174,169.172 665.841,169.005 662.5,168.5C 663.311,146.413 664.644,124.413 666.5,102.5 Z"/></g>
</svg>
