<?xml version="1.0" encoding="UTF-8"?>
<!DOCTYPE svg PUBLIC "-//W3C//DTD SVG 1.1//EN" "http://www.w3.org/Graphics/SVG/1.1/DTD/svg11.dtd">
<svg xmlns="http://www.w3.org/2000/svg" version="1.1" width="299px" height="299px" style="shape-rendering:geometricPrecision; text-rendering:geometricPrecision; image-rendering:optimizeQuality; fill-rule:evenodd; clip-rule:evenodd" xmlns:xlink="http://www.w3.org/1999/xlink">
<g><path style="opacity:1" fill="#4b4b4b" d="M 149.5,35.5 C 157.132,37.812 164.465,40.9786 171.5,45C 186.344,52.9221 201.344,60.5888 216.5,68C 217.667,69.1667 218.833,70.3333 220,71.5C 220.711,73.3668 220.211,74.8668 218.5,76C 196.308,87.2615 174.308,98.7615 152.5,110.5C 173.186,121.844 194.186,132.677 215.5,143C 219.058,144.892 221.558,147.725 223,151.5C 223.667,174.833 223.667,198.167 223,221.5C 221.542,223.96 219.709,226.127 217.5,228C 197.011,238.078 176.677,248.411 156.5,259C 151.833,261 147.167,261 142.5,259C 122.323,248.411 101.989,238.078 81.5,228C 76.5801,224.737 76.9134,221.737 82.5,219C 104.147,208.511 125.48,197.511 146.5,186C 124.813,174.156 102.813,162.823 80.5,152C 77.8941,150.062 76.0608,147.562 75,144.5C 74.3333,121.833 74.3333,99.1667 75,76.5C 76.0608,73.4384 77.8941,70.9384 80.5,69C 101.656,58.5889 122.656,47.9222 143.5,37C 145.708,36.8091 147.708,36.3091 149.5,35.5 Z"/></g>
</svg>
